<svg xmlns="http://www.w3.org/2000/svg" xmlns:xlink="http://www.w3.org/1999/xlink" contentStyleType="text/css" data-diagram-type="DESCRIPTION" height="923px" preserveAspectRatio="none" style="width:733px;height:923px;background:#FFFFFF;" version="1.1" viewBox="0 0 733 923" width="733px" zoomAndPan="magnify"><title>Diagramme de Cas d'Utilisation - AlberitBank Dashboard</title><defs/><g><g class="title" data-source-line="11"><text fill="#000000" font-family="sans-serif" font-size="14" font-weight="bold" lengthAdjust="spacing" textLength="447.4805" x="136.0598" y="22.9951">Diagramme de Cas d'Utilisation - AlberitBank Dashboard</text></g><!--cluster Syst?me AlberitBank--><g class="cluster" data-entity="Syst&#232;me AlberitBank" data-source-line="16" data-uid="ent0004" id="cluster_Syst&#232;me AlberitBank"><path d="M187.41,43.2969 L354.0379,43.2969 A3.75,3.75 0 0 1 356.5379,45.7969 L363.5379,65.5938 L724.1,65.5938 A2.5,2.5 0 0 1 726.6,68.0938 L726.6,913.7969 A2.5,2.5 0 0 1 724.1,916.2969 L187.41,916.2969 A2.5,2.5 0 0 1 184.91,913.7969 L184.91,45.7969 A2.5,2.5 0 0 1 187.41,43.2969" fill="none" style="stroke:#000000;stroke-width:1.5;"/><line style="stroke:#000000;stroke-width:1.5;" x1="184.91" x2="363.5379" y1="65.5938" y2="65.5938"/><text fill="#000000" font-family="sans-serif" font-size="14" font-weight="bold" lengthAdjust="spacing" textLength="165.6279" x="188.91" y="58.292">Syst&#232;me AlberitBank</text></g><!--cluster Fonctionnalit?s du P?le Direction--><g class="cluster" data-entity="Fonctionnalit&#233;s du P&#244;le Direction" data-source-line="19" data-uid="ent0006" id="cluster_Fonctionnalit&#233;s du P&#244;le Direction"><path d="M416.84,467.2969 L680.8732,467.2969 A3.75,3.75 0 0 1 683.3732,469.7969 L690.3732,489.5938 L690.1,489.5938 A2.5,2.5 0 0 1 692.6,492.0938 L692.6,889.7969 A2.5,2.5 0 0 1 690.1,892.2969 L416.84,892.2969 A2.5,2.5 0 0 1 414.34,889.7969 L414.34,469.7969 A2.5,2.5 0 0 1 416.84,467.2969" fill="none" style="stroke:#000000;stroke-width:1.5;"/><line style="stroke:#000000;stroke-width:1.5;" x1="414.34" x2="690.3732" y1="489.5938" y2="489.5938"/><text fill="#000000" font-family="sans-serif" font-size="14" font-weight="bold" lengthAdjust="spacing" textLength="263.0332" x="418.34" y="482.292">Fonctionnalit&#233;s du P&#244;le Direction</text></g><!--cluster Fonctionnalit?s du P?le Commercial--><g class="cluster" data-entity="Fonctionnalit&#233;s du P&#244;le Commercial" data-source-line="27" data-uid="ent0012" id="cluster_Fonctionnalit&#233;s du P&#244;le Commercial"><path d="M406.84,86.2969 L691.4904,86.2969 A3.75,3.75 0 0 1 693.9904,88.7969 L700.9904,108.5938 L700.1,108.5938 A2.5,2.5 0 0 1 702.6,111.0938 L702.6,440.7969 A2.5,2.5 0 0 1 700.1,443.2969 L406.84,443.2969 A2.5,2.5 0 0 1 404.34,440.7969 L404.34,88.7969 A2.5,2.5 0 0 1 406.84,86.2969" fill="none" style="stroke:#000000;stroke-width:1.5;"/><line style="stroke:#000000;stroke-width:1.5;" x1="404.34" x2="700.9904" y1="108.5938" y2="108.5938"/><text fill="#000000" font-family="sans-serif" font-size="14" font-weight="bold" lengthAdjust="spacing" textLength="283.6504" x="408.34" y="101.292">Fonctionnalit&#233;s du P&#244;le Commercial</text></g><!--entity UC_Login--><g class="entity" data-entity="UC_Login" data-source-line="17" data-uid="ent0005" id="entity_UC_Login"><ellipse cx="256.6313" cy="529.2991" fill="#F1F1F1" rx="55.7113" ry="13.5423" style="stroke:#000000;stroke-width:0.5;"/><text fill="#000000" font-family="sans-serif" font-size="12" lengthAdjust="spacing" textLength="78.9668" x="217.1479" y="532.7835">Se connecter</text></g><!--entity UC_GlobalData--><g class="entity" data-entity="UC_GlobalData" data-source-line="20" data-uid="ent0007" id="entity_UC_GlobalData"><ellipse cx="552.9711" cy="852.2971" fill="#ADD8E6" rx="107.5511" ry="23.9102" style="stroke:#000000;stroke-width:0.5;"/><text fill="#000000" font-family="sans-serif" font-size="12" font-style="italic" lengthAdjust="spacing" textLength="94.4531" x="505.7445" y="844.1105">&#171;P&#244;leDirection&#187;</text><text fill="#000000" font-family="sans-serif" font-size="12" lengthAdjust="spacing" textLength="187.3711" x="459.2855" y="858.0792">Consulter les donn&#233;es globales</text></g><!--entity UC_AllAgencies--><g class="entity" data-entity="UC_AllAgencies" data-source-line="21" data-uid="ent0008" id="entity_UC_AllAgencies"><ellipse cx="552.9724" cy="772.3014" fill="#ADD8E6" rx="95.4724" ry="21.4945" style="stroke:#000000;stroke-width:0.5;"/><text fill="#000000" font-family="sans-serif" font-size="12" font-style="italic" lengthAdjust="spacing" textLength="94.4531" x="505.7458" y="766.8694">&#171;P&#244;leDirection&#187;</text><text fill="#000000" font-family="sans-serif" font-size="12" lengthAdjust="spacing" textLength="140.4141" x="482.7654" y="780.8382">Voir toutes les agences</text></g><!--entity UC_AllClients--><g class="entity" data-entity="UC_AllClients" data-source-line="22" data-uid="ent0009" id="entity_UC_AllClients"><ellipse cx="552.9678" cy="694.2922" fill="#ADD8E6" rx="82.4078" ry="21.9053" style="stroke:#000000;stroke-width:0.5;"/><text fill="#000000" font-family="sans-serif" font-size="12" font-style="italic" lengthAdjust="spacing" textLength="94.4531" x="505.7413" y="689.5625">&#171;P&#244;leDirection&#187;</text><text fill="#000000" font-family="sans-serif" font-size="12" lengthAdjust="spacing" textLength="117.3457" x="494.295" y="703.5313">Voir tous les clients</text></g><!--entity UC_GlobalReports--><g class="entity" data-entity="UC_GlobalReports" data-source-line="23" data-uid="ent0010" id="entity_UC_GlobalReports"><ellipse cx="552.9723" cy="614.2953" fill="#ADD8E6" rx="105.4923" ry="23.4985" style="stroke:#000000;stroke-width:0.5;"/><text fill="#000000" font-family="sans-serif" font-size="12" font-style="italic" lengthAdjust="spacing" textLength="94.4531" x="505.7457" y="606.5714">&#171;P&#244;leDirection&#187;</text><text fill="#000000" font-family="sans-serif" font-size="12" lengthAdjust="spacing" textLength="180.3398" x="462.8023" y="620.5402">G&#233;n&#233;rer des rapports globaux</text></g><!--entity UC_ImportDiagrams1--><g class="entity" data-entity="UC_ImportDiagrams1" data-source-line="24" data-uid="ent0011" id="entity_UC_ImportDiagrams1"><ellipse cx="552.9724" cy="529.2933" fill="#ADD8E6" rx="122.6324" ry="26.9265" style="stroke:#000000;stroke-width:0.5;"/><text fill="#000000" font-family="sans-serif" font-size="12" font-style="italic" lengthAdjust="spacing" textLength="94.4531" x="505.7458" y="518.809">&#171;P&#244;leDirection&#187;</text><text fill="#000000" font-family="sans-serif" font-size="12" lengthAdjust="spacing" textLength="228.8438" x="438.5505" y="532.7777">Importer des diagrammes (PDF/Excel)</text></g><!--entity UC_AgencyData--><g class="entity" data-entity="UC_AgencyData" data-source-line="28" data-uid="ent0013" id="entity_UC_AgencyData"><ellipse cx="552.9708" cy="402.301" fill="#90EE90" rx="114.8208" ry="25.3642" style="stroke:#000000;stroke-width:0.5;"/><text fill="#000000" font-family="sans-serif" font-size="12" font-style="italic" lengthAdjust="spacing" textLength="112.0137" x="496.964" y="393.413">&#171;P&#244;leCommercial&#187;</text><text fill="#000000" font-family="sans-serif" font-size="12" lengthAdjust="spacing" textLength="206.5254" x="449.7081" y="407.3818">Consulter les donn&#233;es de l'agence</text></g><!--entity UC_AgencyUsers--><g class="entity" data-entity="UC_AgencyUsers" data-source-line="29" data-uid="ent0014" id="entity_UC_AgencyUsers"><ellipse cx="552.9691" cy="317.2927" fill="#90EE90" rx="109.3291" ry="24.2658" style="stroke:#000000;stroke-width:0.5;"/><text fill="#000000" font-family="sans-serif" font-size="12" font-style="italic" lengthAdjust="spacing" textLength="112.0137" x="496.9623" y="309.6848">&#171;P&#244;leCommercial&#187;</text><text fill="#000000" font-family="sans-serif" font-size="12" lengthAdjust="spacing" textLength="188.4141" x="458.7621" y="323.6536">Voir les utilisateurs de l'agence</text></g><!--entity UC_AgencyReports--><g class="entity" data-entity="UC_AgencyReports" data-source-line="30" data-uid="ent0015" id="entity_UC_AgencyReports"><ellipse cx="552.9695" cy="234.2948" fill="#90EE90" rx="108.9895" ry="24.1979" style="stroke:#000000;stroke-width:0.5;"/><text fill="#000000" font-family="sans-serif" font-size="12" font-style="italic" lengthAdjust="spacing" textLength="112.0137" x="496.9626" y="226.7669">&#171;P&#244;leCommercial&#187;</text><text fill="#000000" font-family="sans-serif" font-size="12" lengthAdjust="spacing" textLength="187.2246" x="459.3572" y="240.7356">G&#233;n&#233;rer des rapports d'agence</text></g><!--entity UC_ImportDiagrams2--><g class="entity" data-entity="UC_ImportDiagrams2" data-source-line="31" data-uid="ent0016" id="entity_UC_ImportDiagrams2"><ellipse cx="552.9724" cy="148.2933" fill="#90EE90" rx="122.6324" ry="26.9265" style="stroke:#000000;stroke-width:0.5;"/><text fill="#000000" font-family="sans-serif" font-size="12" font-style="italic" lengthAdjust="spacing" textLength="112.0137" x="496.9655" y="137.809">&#171;P&#244;leCommercial&#187;</text><text fill="#000000" font-family="sans-serif" font-size="12" lengthAdjust="spacing" textLength="228.8438" x="438.5505" y="151.7777">Importer des diagrammes (PDF/Excel)</text></g><!--entity DA--><g class="entity" data-entity="DA" data-source-line="13" data-uid="ent0002" id="entity_DA"><ellipse cx="73.457" cy="443.6469" fill="#90EE90" rx="8" ry="8" style="stroke:#181818;stroke-width:0.5;"/><path d="M73.457,451.6469 L73.457,478.6469 M60.457,459.6469 L86.457,459.6469 M73.457,478.6469 L60.457,493.6469 M73.457,478.6469 L86.457,493.6469" fill="none" style="stroke:#181818;stroke-width:0.5;"/><text fill="#000000" font-family="sans-serif" font-size="14" lengthAdjust="spacing" textLength="134.9141" x="6" y="508.142">Directeur d'Agence</text></g><!--entity DG--><g class="entity" data-entity="DG" data-source-line="14" data-uid="ent0003" id="entity_DG"><ellipse cx="73.4554" cy="554.6469" fill="#ADD8E6" rx="8" ry="8" style="stroke:#181818;stroke-width:0.5;"/><path d="M73.4554,562.6469 L73.4554,589.6469 M60.4554,570.6469 L86.4554,570.6469 M73.4554,589.6469 L60.4554,604.6469 M73.4554,589.6469 L86.4554,604.6469" fill="none" style="stroke:#181818;stroke-width:0.5;"/><text fill="#000000" font-family="sans-serif" font-size="14" lengthAdjust="spacing" textLength="125.0908" x="10.91" y="619.142">Directeur G&#233;n&#233;ral</text></g><!--link DA to UC_Login--><g class="link" data-entity-1="DA" data-entity-2="UC_Login" data-source-line="36" data-uid="lnk17" id="link_DA_UC_Login"><path d="M141.4,493.9869 C168.42,502.3369 192.7177,509.8547 215.1977,516.8047" fill="none" id="DA-to-UC_Login" style="stroke:#000080;stroke-width:1;"/><polygon fill="#000080" points="220.93,518.5769,213.513,512.097,216.1531,517.1,211.1501,519.7401,220.93,518.5769" style="stroke:#000080;stroke-width:1;"/></g><!--link DG to UC_Login--><g class="link" data-entity-1="DG" data-entity-2="UC_Login" data-source-line="37" data-uid="lnk18" id="link_DG_UC_Login"><path d="M136.3,565.5269 C164.38,556.9969 190.8383,548.9584 214.7083,541.7184" fill="none" id="DG-to-UC_Login" style="stroke:#000080;stroke-width:1;"/><polygon fill="#000080" points="220.45,539.9769,210.6764,538.7613,215.6652,541.4281,212.9985,546.4169,220.45,539.9769" style="stroke:#000080;stroke-width:1;"/></g><!--link UC_Login to UC_GlobalData--><g class="link" data-entity-1="UC_Login" data-entity-2="UC_GlobalData" data-source-line="40" data-uid="lnk19" id="link_UC_Login_UC_GlobalData"><path d="M260.24,543.2869 C269.58,589.2869 305.75,737.1969 396.34,811.2969 C413.75,825.5369 429.8232,833.2556 451.5932,839.3656" fill="none" id="UC_Login-to-UC_GlobalData" style="stroke:#000080;stroke-width:1;"/><polygon fill="#000080" points="457.37,840.9869,449.7857,834.7037,452.556,839.6358,447.6239,842.4061,457.37,840.9869" style="stroke:#000080;stroke-width:1;"/></g><!--link UC_Login to UC_AllAgencies--><g class="link" data-entity-1="UC_Login" data-entity-2="UC_AllAgencies" data-source-line="41" data-uid="lnk20" id="link_UC_Login_UC_AllAgencies"><path d="M262.83,543.0069 C277.6,579.9969 323.47,682.4169 396.34,733.2969 C417.12,747.8069 436.9482,755.5684 461.4082,761.2984" fill="none" id="UC_Login-to-UC_AllAgencies" style="stroke:#000080;stroke-width:1;"/><polygon fill="#000080" points="467.25,762.6669,459.3996,756.7195,462.3818,761.5264,457.5749,764.5087,467.25,762.6669" style="stroke:#000080;stroke-width:1;"/></g><!--link UC_Login to UC_AllClients--><g class="link" data-entity-1="UC_Login" data-entity-2="UC_AllClients" data-source-line="42" data-uid="lnk21" id="link_UC_Login_UC_AllClients"><path d="M268.3,542.6469 C289.72,568.5069 340.69,625.5069 396.34,655.2969 C422,669.0369 446.7737,676.7972 474.0637,682.6572" fill="none" id="UC_Login-to-UC_AllClients" style="stroke:#000080;stroke-width:1;"/><polygon fill="#000080" points="479.93,683.9169,471.9704,678.1165,475.0414,682.8671,470.2908,685.9382,479.93,683.9169" style="stroke:#000080;stroke-width:1;"/></g><!--link UC_Login to UC_GlobalReports--><g class="link" data-entity-1="UC_Login" data-entity-2="UC_GlobalReports" data-source-line="43" data-uid="lnk22" id="link_UC_Login_UC_GlobalReports"><path d="M290.84,540.3369 C318.85,549.5369 360.06,562.7769 396.34,573.2969 C424.11,581.3569 449.0629,588.0876 475.8429,595.0476" fill="none" id="UC_Login-to-UC_GlobalReports" style="stroke:#000080;stroke-width:1;"/><polygon fill="#000080" points="481.65,596.5569,473.9455,590.4216,476.8108,595.2992,471.9332,598.1644,481.65,596.5569" style="stroke:#000080;stroke-width:1;"/></g><!--link UC_Login to UC_ImportDiagrams1--><g class="link" data-entity-1="UC_Login" data-entity-2="UC_ImportDiagrams1" data-source-line="44" data-uid="lnk23" id="link_UC_Login_UC_ImportDiagrams1"><path d="M312.64,529.2969 C345.76,529.2969 383.28,529.2969 424.13,529.2969" fill="none" id="UC_Login-to-UC_ImportDiagrams1" style="stroke:#000080;stroke-width:1;"/><polygon fill="#000080" points="430.13,529.2969,421.13,525.2969,425.13,529.2969,421.13,533.2969,430.13,529.2969" style="stroke:#000080;stroke-width:1;"/></g><!--link UC_Login to UC_AgencyData--><g class="link" data-entity-1="UC_Login" data-entity-2="UC_AgencyData" data-source-line="47" data-uid="lnk24" id="link_UC_Login_UC_AgencyData"><path d="M285.32,517.3469 C334.19,496.2669 430.9809,454.4937 493.7009,427.4337" fill="none" id="UC_Login-to-UC_AgencyData" style="stroke:#000080;stroke-width:1;"/><polygon fill="#000080" points="499.21,425.0569,489.3617,424.9494,494.6191,427.0376,492.5309,432.2949,499.21,425.0569" style="stroke:#000080;stroke-width:1;"/></g><!--link UC_Login to UC_AgencyUsers--><g class="link" data-entity-1="UC_Login" data-entity-2="UC_AgencyUsers" data-source-line="48" data-uid="lnk25" id="link_UC_Login_UC_AgencyUsers"><path d="M264.66,515.8569 C282.25,483.6069 331.44,401.3469 396.34,359.2969 C416.18,346.4369 434.09,339.0604 456.94,332.8504" fill="none" id="UC_Login-to-UC_AgencyUsers" style="stroke:#000080;stroke-width:1;"/><polygon fill="#000080" points="462.73,331.2769,452.996,329.7772,457.905,332.5882,455.0941,337.4972,462.73,331.2769" style="stroke:#000080;stroke-width:1;"/></g><!--link UC_Login to UC_AgencyReports--><g class="link" data-entity-1="UC_Login" data-entity-2="UC_AgencyReports" data-source-line="49" data-uid="lnk26" id="link_UC_Login_UC_AgencyReports"><path d="M261,515.4869 C272.19,472.6769 312.27,341.1169 396.34,275.2969 C413.94,261.5169 429.9649,253.9741 451.6149,247.8741" fill="none" id="UC_Login-to-UC_AgencyReports" style="stroke:#000080;stroke-width:1;"/><polygon fill="#000080" points="457.39,246.2469,447.6425,244.8375,452.5774,247.6029,449.8121,252.5377,457.39,246.2469" style="stroke:#000080;stroke-width:1;"/></g><!--link UC_Login to UC_ImportDiagrams2--><g class="link" data-entity-1="UC_Login" data-entity-2="UC_ImportDiagrams2" data-source-line="50" data-uid="lnk27" id="link_UC_Login_UC_ImportDiagrams2"><path d="M259.08,515.2869 C265.18,463.9169 293.37,284.0669 396.34,192.2969 C411.32,178.9369 424.3953,171.5264 443.6453,165.0264" fill="none" id="UC_Login-to-UC_ImportDiagrams2" style="stroke:#000080;stroke-width:1;"/><polygon fill="#000080" points="449.33,163.1069,439.5233,162.1963,444.5928,164.7065,442.0827,169.7759,449.33,163.1069" style="stroke:#000080;stroke-width:1;"/></g><!--SRC=[dPJ1Rjim38RlVWh2EsGx14DpBW8azXeCA8PYGNOT59jrXSXI9ibhiY7lizpt1dwnKR8TEtKTfBlP8lc9v4zAuAC5gq3pxCb2oZKcbYiPc0sNMwPP3YonIY_jNY24x1cDoZ7ic0k32JC8lmE0EKiscLQ5J2CbbBwzVIZ_2emRw7GAz-wQkIXmq3jIUOuwuKmqxWkDA9s_qYbgxmjpGS5qDjDQFLT7NzZFFPtSAMcN_1V2pIGu187bbXAFESiesHmXHOYOWNIqibnmmrnUC8QPMAFcTixa1c9cdjQAwJG8VEqGLXLWeIbkbg5CC0I2n3DurycmvxmeZx8yQYOgxqNjxSiFjbG0owYdoxsnvHzAhPD3wDi9f-Q6IuH4IUd0sjDMqVTxbN4PUByJZAhthPPCS5iUgT02V5lXf4B3FkD7Iff241m4KX01oYDzP4Aj6PqqLoxyVymiWxwuVUetnJKDLs49vRZCz-v4cmdXkyd9z1PS1Ki4HscxiAWwkOfLQqC5fyJIRBjLsjO55xlpUhzYPRo6-pbtlZKsRSREmFk7-ExZfrs2uaC3hrphqJGtG_Z3rHAtg_CMZMaZn8YrK-rwwVxsNPcxMpaWZ8CMzLBHz5y0hmngSnrvGARqLUuBdIwJ_rkeoI3_u1wS4Sb0YxeZXMYScXS0JK2lnNWyRHUNteEpVnT9zvbjUKpu8_zHk8NfRM_G-3V1xKhsJ9tzUirMhyi0iMvcp_fYQY-dtRQedy1fnWPCVae6RDSbD_a7]--></g></svg>